<svg height="141.977" viewBox="0 0 445.644 141.977" width="445.644" xmlns="http://www.w3.org/2000/svg"><g fill="none"><path d="m135.449 35.517 4.968-28.981h21.293l3.994 40.705-31.675-.415-7.807 46.3" stroke="#fff" stroke-miterlimit="10" stroke-width="7"/><path d="m178.744 6.536c3.992 0 8.112-.06 12.104-.056 3.481.004 7.023-.153 10.459.515 10.691 2.076 15.974 14.099 13.889 24.124-1 4.812-3.394 9.619-7.407 12.602-3.217 2.391-7.443 2.98-11.342 3.137-4.464.18-8.977.117-13.446.134" stroke="#fff" stroke-miterlimit="10" stroke-width="7"/><path d="m180.873 28.893v64.588" stroke="#0f0" stroke-miterlimit="10" stroke-width="6"/><path d="m218.845 92.771-28.942-46.365" stroke="#fff" stroke-miterlimit="10" stroke-width="7"/><path d="m245.631 94.191v-87.419h22.399" stroke="#fff" stroke-miterlimit="10" stroke-width="7"/><path d="m239.243 6.772h-19.61" stroke="#fff" stroke-miterlimit="10" stroke-width="7"/><path d="m311.655 4.052v11.534c0 8.168.031 16.337.065 24.505.033 7.125.059 14.411.107 21.597.045 6.723.823 13.781-1.389 20.255-1.45 4.243-5.192 7.697-9.382 8.842-1.463.4-2.981.567-4.493.567-12.066 0-17.034-5.844-17.034-21.916" stroke="#fff" stroke-miterlimit="10" stroke-width="7"/><path d="m279.529 4.039v54.632" stroke="#0f0" stroke-miterlimit="10" stroke-width="6"/><path d="m364.246 31.119c-1 4.812-3.394 9.619-7.407 12.602-3.217 2.391-7.443 2.98-11.342 3.137-4.464.18-8.977.117-13.446.134" stroke="#fff" stroke-miterlimit="10" stroke-width="7"/><path d="m327.793 6.536c3.992 0 8.112-.06 12.104-.056 3.481.004 7.023-.153 10.459.515 10.691 2.076 15.974 14.099 13.889 24.124" stroke="#fff" stroke-miterlimit="10" stroke-width="7"/><path d="m329.922 35.281v57.49" stroke="#0f0" stroke-miterlimit="10" stroke-width="6"/><path d="m51.796 2.085-47.503 53.138 47.503 40.105" stroke="#0f0" stroke-miterlimit="10" stroke-width="6"/><path d="m91.902 97.03v-96.527" stroke="#0f0" stroke-miterlimit="10" stroke-width="6"/><path d="m393.975 95.54 47.376-53.251-47.597-39.992" stroke="#0f0" stroke-miterlimit="10" stroke-width="6"/></g><path d="m146.016 125.191h5.485c4.539 0 7.684 3.168 7.684 8.133s-3.074 8.417-7.708 8.417h-5.461zm1.277 15.368h3.995c4.374 0 6.525-3.074 6.525-7.164 0-3.64-1.939-7.021-6.525-7.021h-3.995z" fill="#fff"/><path d="m172.543 133.607h-8.44v6.951h9.243l-.189 1.182h-10.332v-16.55h10.142v1.182h-8.866v6.052h8.44v1.182z" fill="#fff"/><path d="m181.409 141.741-6.147-16.55h1.371l3.215 8.653c.922 2.506 1.962 5.273 2.316 6.667h.048c.354-1.229 1.49-4.137 2.411-6.572l3.333-8.748h1.347l-6.383 16.55h-1.513z" fill="#fff"/><path d="m201.836 133.607h-8.44v6.951h9.243l-.189 1.182h-10.332v-16.55h10.142v1.182h-8.866v6.052h8.44v1.182z" fill="#fff"/><path d="m205.903 125.191h1.277v15.368h8.889l-.236 1.182h-9.93z" fill="#fff"/><path d="m232.028 133.348c0 4.516-2.411 8.629-7.518 8.629-4.657 0-7.376-3.759-7.376-8.511 0-4.681 2.624-8.512 7.542-8.512 4.539 0 7.353 3.57 7.353 8.393zm-13.524.047c0 3.807 2.104 7.4 6.077 7.4 4.279 0 6.076-3.5 6.076-7.424 0-3.854-2.034-7.234-6.029-7.234-4.256 0-6.124 3.522-6.124 7.258z" fill="#fff"/><path d="m235.67 125.191h5.91c3.026 0 5.107 1.679 5.107 4.611 0 2.979-2.057 4.728-5.273 4.728h-4.444v7.211h-1.3zm1.3 8.157h4.563c2.671 0 3.782-1.418 3.782-3.499 0-2.222-1.465-3.475-3.688-3.475h-4.657z" fill="#fff"/><path d="m264.466 134.128c0-3.239.024-6.337.094-7.991h-.071c-.662 2.222-4.019 10.379-6.123 15.604h-1.253c-1.584-4.043-5.059-13.122-5.816-15.627h-.047c.118 1.891.166 5.745.166 8.582v7.046h-1.277v-16.55h1.915c2.269 5.675 5.13 13.098 5.745 14.966h.047c.378-1.206 3.688-9.457 6.005-14.966h1.892v16.55h-1.277v-7.613z" fill="#fff"/><path d="m280.331 133.607h-8.44v6.951h9.243l-.189 1.182h-10.332v-16.55h10.142v1.182h-8.866v6.052h8.44v1.182z" fill="#fff"/><path d="m284.398 141.741v-16.55h1.891c2.577 3.972 8.629 13.216 9.67 15.013h.024c-.141-2.388-.118-4.823-.118-7.518v-7.495h1.3v16.55h-1.749c-2.459-3.83-8.606-13.452-9.788-15.273h-.024c.119 2.175.095 4.587.095 7.589v7.684h-1.3z" fill="#fff"/><path d="m305.345 126.373h-5.555v-1.182h12.435v1.182h-5.58v15.367h-1.3z" fill="#fff"/><path d="m128.499 94.079h-4.882l1.185-7.34h4.809z" fill="#fff" stroke="#fff" stroke-miterlimit="10" stroke-width=".2"/><path d="m137.933 35.991h-4.969l1.42-8.517 4.968-.71z" fill="#fff" stroke="#fff" stroke-miterlimit="10" stroke-width=".25"/><path d="m218.845 88.513 3.549 5.678h-5.343l-2.162-3.782z" fill="#fff" stroke="#fff" stroke-miterlimit="10" stroke-width=".5"/><path d="m366.605 92.894-28.942-46.366" fill="none" stroke="#fff" stroke-miterlimit="10" stroke-width="7"/><path d="m366.605 88.635 3.548 5.678h-5.343l-2.161-3.782z" fill="#fff" stroke="#fff" stroke-miterlimit="10" stroke-width=".5"/></svg>